<svg xmlns="http://www.w3.org/2000/svg" version="1.2" baseProfile="tiny" x="0px" y="0px" width="172.974609px" height="171.987793px" viewBox="0 0 172.974609 171.987793" xml:space="preserve"><path fill-rule="evenodd" fill="#F6F6F6" d="M118.848633 22.891113c-3.497559-1.791016-7.181641-3.260742-11.01123-4.390137l11.155273-5.321289c4.36084 1.917969 8.499023 4.249512 12.362305 6.942383L118.848633 22.891113 118.848633 22.891113zM130.919922 30.912109c-3.018555-2.540039-6.271484-4.800781-9.726074-6.75293l12.057617-2.668945c2.836914 2.115723 5.511719 4.433105 8.010254 6.927734 0.848633 0.853027 1.678223 1.72168 2.484375 2.611328L130.919922 30.912109 130.919922 30.912109zM140.90918 41.444824c-2.384277-3.162109-5.056641-6.099121-7.977539-8.768066l12.357422 0.114258c3.061035 3.598145 5.778809 7.502441 8.103027 11.65918L140.90918 41.444824 140.90918 41.444824zM148.283691 53.964355c-1.620605-3.64209-3.572266-7.10498-5.811523-10.348633l12.026367 2.893066c2.162598 4.174316 3.932617 8.583496 5.263672 13.185059L148.283691 53.964355 148.283691 53.964355zM152.629883 67.803223c-0.754883-3.929688-1.866699-7.730469-3.307129-11.374512l11.05127 5.520996c1.150879 4.51709 1.878906 9.200195 2.141113 14.013672L152.629883 67.803223 152.629883 67.803223zM153.746582 82.26123c0.027344-0.751953 0.046387-1.51123 0.046387-2.273926 0-3.246094-0.244629-6.430664-0.709473-9.548828l9.519043 7.856445c0.015137 0.564453 0.021484 1.128418 0.021484 1.692383 0 4.249512-0.364746 8.417969-1.063965 12.466797L153.746582 82.26123 153.746582 82.26123zM151.603027 96.634766c1.01416-3.771973 1.692383-7.680176 2.001953-11.693848l7.520996 9.813477c-0.966309 4.700684-2.384277 9.234863-4.208984 13.555664L151.603027 96.634766 151.603027 96.634766zM146.271973 110.126465c1.850098-3.459473 3.39209-7.11377 4.587891-10.92334l5.114258 11.244141c-1.990723 4.324707-4.391113 8.423828-7.153809 12.239746L146.271973 110.126465 146.271973 110.126465zM138.041016 122.067383c2.589844-2.973145 4.911621-6.189941 6.924805-9.609375l2.453125 12.097656c-1.901855 2.463379-3.958984 4.804688-6.157227 7.000977 -1.149902 1.150879-2.340332 2.261719-3.563965 3.332031L138.041016 122.067383 138.041016 122.067383zM127.335938 131.862793c3.206543-2.329102 6.1875-4.943848 8.907715-7.819824l-0.328613 12.35498c-3.652832 2.999512-7.60498 5.648438-11.801758 7.896973L127.335938 131.862793 127.335938 131.862793zM114.687988 139.027832c3.671387-1.55957 7.16748-3.447266 10.449219-5.632324l-3.102051 11.973633c-4.211914 2.087402-8.650879 3.782227-13.274902 5.033203L114.687988 139.027832 114.687988 139.027832zM112.208496 140.015625l-5.712402 10.953125c-4.532715 1.070801-9.231934 1.722656-14.046875 1.897949L112.208496 140.015625 112.208496 140.015625zM129.37793 6.399902C124.535645 3.779297 119.402344 1.634766 114.043945 0l5.42627 11.394531c4.423828 1.922363 8.623047 4.262695 12.551758 6.966309L129.37793 6.399902 129.37793 6.399902zM144.913086 17.241211c-4.154297-3.664062-8.671875-6.918457-13.498047-9.702637l2.729004 12.334961c2.980957 2.210449 5.791016 4.634766 8.409668 7.253418 0.766113 0.764648 1.515625 1.546387 2.246582 2.345215L144.913086 17.241211 144.913086 17.241211zM157.616211 31.262207c-3.240234-4.506836-6.919434-8.681152-10.973145-12.458008l-0.116699 12.615234c3.102539 3.628906 5.860352 7.553223 8.229492 11.728027L157.616211 31.262207 157.616211 31.262207zM166.844727 47.768555c-2.150879-5.145996-4.803711-10.032227-7.894531-14.600098l-2.94873 12.259277c2.19873 4.211914 4.006348 8.652344 5.380371 13.288086L166.844727 47.768555 166.844727 47.768555zM172.106934 65.960449c-0.9375-5.547852-2.419434-10.905762-4.39209-16.025879l-5.637207 11.287598c1.183105 4.570312 1.944336 9.31543 2.236328 14.180664L172.106934 65.960449 172.106934 65.960449zM173.141113 84.866699c0.094238-1.613281 0.146484-3.243652 0.146484-4.879395 0-3.978027-0.287109-7.891602-0.823242-11.719238l-8.037598 9.740234c0.018555 0.657715 0.027344 1.318359 0.027344 1.979004 0 4.191895-0.347168 8.310547-1.008789 12.313965L173.141113 84.866699 173.141113 84.866699zM169.925781 103.505371c1.537109-5.242188 2.567383-10.697754 3.048828-16.316406l-10.000977 7.669434c-0.959961 4.75-2.369141 9.334961-4.181641 13.711426L169.925781 103.505371 169.925781 103.505371zM162.567871 120.953125c2.705078-4.802246 4.947266-9.89502 6.672363-15.224121l-11.48877 5.22998c-1.998047 4.387207-4.409668 8.546387-7.182617 12.424805L162.567871 120.953125 162.567871 120.953125zM151.47168 136.297363c3.731445-4.09375 7.05957-8.553711 9.92627-13.327148l-12.380859 2.510742c-1.993164 2.597168-4.152832 5.058105-6.463379 7.366699 -1.072754 1.074707-2.175781 2.116211-3.313965 3.119141L151.47168 136.297363 151.47168 136.297363zM137.226562 148.747559c4.564941-3.158691 8.800781-6.766602 12.646484-10.75293l-12.608887-0.335938c-3.678223 3.038574-7.651855 5.731445-11.867188 8.025391L137.226562 148.747559 137.226562 148.747559zM120.562012 157.693848c5.187012-2.064453 10.113281-4.635254 14.729004-7.64502l-12.20166-3.161621c-4.243164 2.123535-8.721191 3.855957-13.378906 5.152344L120.562012 157.693848 120.562012 157.693848zM118.387207 158.524902l-11.197754-5.836426c-4.590332 1.098145-9.34375 1.777832-14.21875 1.98584L118.387207 158.524902 118.387207 158.524902z"/><polygon fill-rule="evenodd" fill="#F6F6F6" points="117.457031,11.58252 114.023438,4.797363 102.687012,7.538574 111.035156,14.570801 117.457031,11.58252 "/><path fill-rule="evenodd" fill="#F6F6F6" d="M54.438477 22.891113c3.496094-1.791016 7.181152-3.260742 11.009766-4.390137l-11.154785-5.321289c-4.359863 1.917969-8.498047 4.249512-12.361816 6.942383L54.438477 22.891113 54.438477 22.891113zM42.367188 30.912109c3.018555-2.540039 6.271484-4.800781 9.724121-6.75293l-12.055664-2.668945c-2.835938 2.115723-5.513184 4.433105-8.010254 6.927734 -0.849121 0.853027-1.678711 1.72168-2.485352 2.611328L42.367188 30.912109 42.367188 30.912109zM32.378418 41.444824c2.384277-3.162109 5.055664-6.099121 7.977051-8.768066l-12.356934 0.114258c-3.061523 3.598145-5.779785 7.502441-8.104004 11.65918L32.378418 41.444824 32.378418 41.444824zM25.003418 53.964355c1.621582-3.64209 3.571777-7.10498 5.811523-10.348633l-12.026367 2.893066c-2.162598 4.174316-3.931641 8.583496-5.26416 13.185059L25.003418 53.964355 25.003418 53.964355zM20.656738 67.803223c0.755371-3.929688 1.865723-7.730469 3.308105-11.374512l-11.051758 5.520996c-1.150879 4.51709-1.880371 9.200195-2.141602 14.013672L20.656738 67.803223 20.656738 67.803223zM19.540527 82.26123c-0.027344-0.751953-0.046387-1.51123-0.046387-2.273926 0-3.246094 0.244629-6.430664 0.709473-9.548828l-9.52002 7.856445c-0.015137 0.564453-0.021973 1.128418-0.021973 1.692383 0 4.249512 0.364258 8.417969 1.064453 12.466797L19.540527 82.26123 19.540527 82.26123zM21.684082 96.634766c-1.014648-3.771973-1.692383-7.680176-2.001953-11.693848l-7.521484 9.813477c0.96582 4.700684 2.385254 9.234863 4.208008 13.555664L21.684082 96.634766 21.684082 96.634766zM27.015137 110.126465c-1.849609-3.459473-3.39209-7.11377-4.587891-10.92334l-5.114258 11.244141c1.990723 4.324707 4.389648 8.423828 7.153809 12.239746L27.015137 110.126465 27.015137 110.126465zM35.245117 122.067383c-2.588867-2.973145-4.911133-6.189941-6.923828-9.609375l-2.453125 12.097656c1.901855 2.463379 3.958008 4.804688 6.157227 7.000977 1.148926 1.150879 2.339355 2.261719 3.563965 3.332031L35.245117 122.067383 35.245117 122.067383zM45.949707 131.862793c-3.206543-2.329102-6.186035-4.943848-8.90625-7.819824l0.329102 12.35498c3.652832 2.999512 7.604492 5.648438 11.80127 7.896973L45.949707 131.862793 45.949707 131.862793zM58.598633 139.027832c-3.670898-1.55957-7.167969-3.447266-10.44873-5.632324l3.102051 11.973633c4.211914 2.087402 8.649414 3.782227 13.274902 5.033203L58.598633 139.027832 58.598633 139.027832zM61.077148 140.015625l5.712402 10.953125c4.53418 1.070801 9.23291 1.722656 14.04834 1.897949L61.077148 140.015625 61.077148 140.015625zM43.90918 6.399902C48.751465 3.779297 53.884766 1.634766 59.243164 0l-5.426758 11.394531c-4.424316 1.922363-8.623535 4.262695-12.552246 6.966309L43.90918 6.399902 43.90918 6.399902zM28.373047 17.241211c4.154785-3.664062 8.672852-6.918457 13.498535-9.702637l-2.728516 12.334961c-2.980957 2.210449-5.791016 4.634766-8.411133 7.253418 -0.764648 0.764648-1.515625 1.546387-2.245605 2.345215L28.373047 17.241211 28.373047 17.241211zM15.670898 31.262207c3.240234-4.506836 6.919922-8.681152 10.972656-12.458008l0.117188 12.615234c-3.102539 3.628906-5.859375 7.553223-8.22998 11.728027L15.670898 31.262207 15.670898 31.262207zM6.441895 47.768555c2.151367-5.145996 4.804199-10.032227 7.895996-14.600098l2.947754 12.259277c-2.198242 4.211914-4.006348 8.652344-5.379883 13.288086L6.441895 47.768555 6.441895 47.768555zM1.179688 65.960449c0.9375-5.547852 2.419922-10.905762 4.39209-16.025879l5.637695 11.287598c-1.183105 4.570312-1.944336 9.31543-2.236328 14.180664L1.179688 65.960449 1.179688 65.960449zM0.145996 84.866699C0.051758 83.253418 0 81.623047 0 79.987305c0-3.978027 0.285156-7.891602 0.822754-11.719238l8.036621 9.740234c-0.017578 0.657715-0.026367 1.318359-0.026367 1.979004 0 4.191895 0.34668 8.310547 1.008789 12.313965L0.145996 84.866699 0.145996 84.866699zM3.361328 103.505371C1.82373 98.263184 0.793945 92.807617 0.313477 87.188965l9.999023 7.669434c0.958984 4.75 2.369141 9.334961 4.182129 13.711426L3.361328 103.505371 3.361328 103.505371zM10.71875 120.953125c-2.70459-4.802246-4.946777-9.89502-6.671875-15.224121l11.48877 5.22998c1.998047 4.387207 4.409668 8.546387 7.182617 12.424805L10.71875 120.953125 10.71875 120.953125zM21.81543 136.297363c-3.731445-4.09375-7.05957-8.553711-9.927734-13.327148l12.381348 2.510742c1.994141 2.597168 4.153809 5.058105 6.462891 7.366699 1.073242 1.074707 2.178223 2.116211 3.31543 3.119141L21.81543 136.297363 21.81543 136.297363zM36.060547 148.747559c-4.564941-3.158691-8.800781-6.766602-12.646484-10.75293l12.608887-0.335938c3.676758 3.038574 7.650879 5.731445 11.867188 8.025391L36.060547 148.747559 36.060547 148.747559zM52.725586 157.693848c-5.1875-2.064453-10.114746-4.635254-14.729492-7.64502l12.200195-3.161621c4.243652 2.123535 8.721191 3.855957 13.380371 5.152344L52.725586 157.693848 52.725586 157.693848zM54.899902 158.524902l11.197266-5.836426c4.589844 1.098145 9.344238 1.777832 14.217773 1.98584L54.899902 158.524902 54.899902 158.524902z"/><polygon fill-rule="evenodd" fill="#F6F6F6" points="55.830078,11.58252 59.262207,4.797363 70.600098,7.538574 62.25,14.570801 55.830078,11.58252 "/><polygon fill-rule="evenodd" fill="#F6F6F6" points="95.231934,154.140137 86.42627,171.987793 77.622559,154.140137 86.42627,136.290039 "/></svg>
